<?xml version="1.0" standalone="no"?>
<!DOCTYPE svg PUBLIC "-//W3C//DTD SVG 20010904//EN"
 "http://www.w3.org/TR/2001/REC-SVG-20010904/DTD/svg10.dtd">
<svg version="1.0" xmlns="http://www.w3.org/2000/svg"
 width="512.000000pt" height="512.000000pt" viewBox="0 0 512.000000 512.000000"
 preserveAspectRatio="xMidYMid meet">

<g transform="translate(0.000000,512.000000) scale(0.100000,-0.100000)"
fill="#000000" stroke="none">
<path d="M1666 4290 c-242 -202 -441 -371 -443 -377 -2 -6 197 -178 442 -382
l445 -371 0 215 0 215 24 0 c13 0 63 -11 110 -25 682 -198 979 -982 596 -1573
-145 -224 -357 -375 -640 -455 -74 -21 -87 -22 -1137 -25 l-1063 -3 0 -300 0
-300 1083 4 c1167 4 1113 2 1315 57 555 152 1000 597 1152 1151 183 668 -71
1382 -635 1784 -205 146 -470 252 -714 285 l-91 13 -2 226 -3 227 -439 -366z"/>
<path d="M790 3718 c-238 -239 -394 -541 -458 -883 -26 -141 -22 -438 7 -575
25 -121 74 -273 121 -377 l33 -73 364 0 364 0 -65 79 c-273 336 -322 768 -129
1143 65 127 140 221 257 325 33 29 58 54 55 56 -12 10 -436 362 -450 374 -15
12 -26 5 -99 -69z"/>
<path d="M4210 1736 l0 -226 -305 0 -304 0 -32 -47 c-130 -190 -290 -352 -493
-497 l-78 -56 606 0 606 0 2 -223 3 -223 444 366 c245 201 446 371 448 377 2
6 -184 166 -414 355 -230 190 -433 357 -450 372 l-33 28 0 -226z"/>
</g>
</svg>
